<?xml version="1.0" standalone="no"?><!DOCTYPE svg PUBLIC "-//W3C//DTD SVG 1.1//EN" "http://www.w3.org/Graphics/SVG/1.1/DTD/svg11.dtd"><svg t="1755158759025" class="icon" viewBox="0 0 1024 1024" version="1.1" xmlns="http://www.w3.org/2000/svg" p-id="7748" xmlns:xlink="http://www.w3.org/1999/xlink" width="200" height="200"><path d="M778 96H428a32 32 0 0 0-28.622 17.69l-192 384-0.311 0.639C197.05 519.464 212.45 544 236 544h105.758l-96.563 343.336c-8.92 31.719 30.134 54.59 53.432 31.291l512-512 0.595-0.609C830.499 385.783 816.224 352 788 352H634.048l168.598-203.59C819.921 127.55 805.085 96 778 96z m-68.05 64L541.354 363.59l-0.509 0.629C524.377 385.079 539.186 416 566 416h144.744L339.956 786.788l74.849-266.124 0.166-0.612C420.239 499.848 404.993 480 384 480h-96.224l160-320H709.95z" fill="#ffffff" p-id="7749"></path></svg>