<?xml version="1.0" standalone="no"?><!DOCTYPE svg PUBLIC "-//W3C//DTD SVG 1.1//EN" "http://www.w3.org/Graphics/SVG/1.1/DTD/svg11.dtd"><svg t="1722133257370" class="icon" viewBox="0 0 1024 1024" version="1.1" xmlns="http://www.w3.org/2000/svg" p-id="4414" xmlns:xlink="http://www.w3.org/1999/xlink" width="200" height="200"><path d="M670.351 839.721c0-12.288-8.847-22.241-19.783-22.241H373.39c-10.936 0-19.783 9.953-19.783 22.241v89.047h-197.96v66.847h712.663v-66.847h-197.96v-89.047zM957.194 28.426H66.764C29.902 28.426 0 58.286 0 95.191v623.33c0 36.822 29.86 66.764 66.765 66.764h890.43c36.863 0 66.805-29.9 66.805-66.765V95.191c0-36.864-29.86-66.765-66.806-66.765z m0 667.771c0 12.288-9.953 22.241-22.241 22.241H89.047c-12.329 0-22.241-9.953-22.241-22.24V117.431c0-12.288 9.912-22.241 22.241-22.241h845.906c12.288 0 22.241 9.912 22.241 22.241v578.765zM729.17 653.6h120.422V302.98H729.17V653.6z m-192.676 0h120.422V195.092H536.494V653.6z m-361.349 0h120.422v-134.84H175.145v134.84z m168.673 0h120.423v-242.77H343.818v242.77z" fill="#fff" p-id="4415"></path></svg>