<?xml version="1.0" encoding="UTF-8" standalone="no"?>
<!DOCTYPE svg PUBLIC "-//W3C//DTD SVG 1.1//EN" "http://www.w3.org/Graphics/SVG/1.1/DTD/svg11.dtd">
<svg width="100%" height="100%" viewBox="0 0 110 110" version="1.1" xmlns="http://www.w3.org/2000/svg" xmlns:xlink="http://www.w3.org/1999/xlink" xml:space="preserve" xmlns:serif="http://www.serif.com/" style="fill-rule:evenodd;clip-rule:evenodd;stroke-linecap:round;stroke-linejoin:round;stroke-miterlimit:1.5;">
    <g transform="matrix(1,0,0,1,-18.4075,-19.9281)">
        <g transform="matrix(1,0,0,1,-13.8953,-11.9173)">
            <circle cx="87.257" cy="86.651" r="50.705" style="fill:none;stroke:rgb(108,179,63);stroke-width:8px;"/>
        </g>
        <g transform="matrix(0.11881,0,0,0.11881,36.4884,41.0854)">
            <g>
                <clipPath id="_clip1">
                    <rect x="0" y="0" width="576" height="512"/>
                </clipPath>
                <g clip-path="url(#_clip1)">
                    <path d="M546.2,9.7C540.6,-2.8 524.6,-3.3 517.9,8.5C486.9,62.4 431.4,96 368,96L288,96C182,96 96,182 96,288C96,295 96.8,301.7 97.5,308.5C161.3,262.8 253.4,224 384,224C392.8,224 400,231.2 400,240C400,248.8 392.8,256 384,256C132.6,256 26,410.1 2.4,468C-4.2,484.3 3.6,502.9 19.9,509.6C36.3,516.4 54.9,508.5 61.7,492.3C63.2,488.7 82.6,444.4 133.6,401.7C166,445.6 227.6,487.5 308.5,478.9C465.5,467.5 576,326.7 576,154.3C576,104.1 565.2,52.1 546.2,9.7Z" style="fill:rgb(108,179,63);fill-rule:nonzero;"/>
                </g>
            </g>
        </g>
    </g>
</svg>
